<svg focusable="false" width="186" height="61" viewBox="0 0 186 61" fill="none" xmlns="http://www.w3.org/2000/svg">
<path d="M49.6333 13.6029C49.6248 13.2477 49.6868 12.8943 49.8159 12.5632C49.945 12.2321 50.1385 11.9299 50.3853 11.6742C50.666 11.4101 50.9983 11.207 51.3613 11.0776C51.7243 10.9482 52.1101 10.8953 52.4945 10.9222C52.88 10.8963 53.2667 10.9496 53.6308 11.079C53.9949 11.2083 54.3285 11.4109 54.6113 11.6742C54.8593 11.929 55.0536 12.2311 55.1827 12.5624C55.3119 12.8937 55.3733 13.2475 55.3632 13.6029C55.3703 13.9507 55.3074 14.2963 55.1782 14.6193C55.049 14.9422 54.8562 15.2359 54.6113 15.4828C54.3282 15.7456 53.9944 15.9478 53.6305 16.0771C53.2665 16.2064 52.88 16.2601 52.4945 16.2348C52.1102 16.261 51.7245 16.2078 51.3616 16.0784C50.9987 15.9491 50.6664 15.7463 50.3853 15.4828C50.1421 15.2346 49.9504 14.9407 49.8213 14.6181C49.6923 14.2954 49.6284 13.9504 49.6333 13.6029V13.6029ZM54.9873 41.8914H49.9379V19.4343H54.9797L54.9873 41.8914Z" fill="#241A5F"/>
<path d="M70.6166 24.0438C69.9369 23.931 69.249 23.8757 68.56 23.8783C66.2515 23.8783 64.695 24.7631 63.8904 26.5327V41.8914H58.8523V19.4343H63.6686L63.7926 21.9458C65.0108 19.9958 66.6989 19.0207 68.857 19.0207C69.4641 19.0024 70.0691 19.1006 70.6392 19.3102L70.6166 24.0438Z" fill="#241A5F"/>
<path d="M82.8434 42.305C79.6476 42.305 77.0571 41.3023 75.0719 39.2971C73.0868 37.2919 72.0942 34.6112 72.0942 31.255V30.6309C72.0572 28.5525 72.5011 26.4937 73.3913 24.6152C74.188 22.9184 75.4517 21.4838 77.0345 20.4795C78.6038 19.4998 80.4221 18.9933 82.2719 19.0207C85.3323 19.0207 87.6947 19.9957 89.359 21.9458C91.0234 23.8959 91.858 26.653 91.863 30.2173V32.2476H77.1999C77.3553 34.1049 77.9745 35.5725 79.0573 36.6503C79.5947 37.184 80.2353 37.6026 80.9399 37.8805C81.6445 38.1585 82.3983 38.29 83.1554 38.267C84.2512 38.2867 85.3357 38.0425 86.3172 37.555C87.2988 37.0675 88.1487 36.351 88.7951 35.4659L91.5134 38.0602C90.6113 39.4028 89.3681 40.4812 87.9115 41.1845C86.3318 41.9459 84.5968 42.3295 82.8434 42.305V42.305ZM82.2418 23.0662C81.6096 23.043 80.9803 23.1617 80.4 23.4134C79.8196 23.6652 79.303 24.0438 78.8881 24.5212C78.0359 25.4863 77.492 26.8348 77.2563 28.5668H86.8663V28.1908C86.7535 26.5039 86.3036 25.2268 85.5166 24.3596C84.7295 23.4923 83.6379 23.0612 82.2418 23.0662V23.0662Z" fill="#241A5F"/>
<path d="M101.699 13.9789V19.4343H105.661V23.1715H101.699V35.7066C101.699 36.5638 101.868 37.1829 102.206 37.5639C102.545 37.9449 103.15 38.1354 104.022 38.1354C104.616 38.1334 105.208 38.0627 105.786 37.9248V41.8275C104.706 42.137 103.589 42.2976 102.466 42.305C98.5931 42.305 96.6568 40.1669 96.6568 35.8908V23.1715H92.9609V19.4343H96.6568V13.9789H101.699Z" fill="#241A5F"/>
<path d="M122.689 39.692C121.208 41.434 119.105 42.305 116.381 42.305C113.944 42.305 112.099 41.5919 110.846 40.1657C109.593 38.7395 108.966 36.6791 108.966 33.9846V19.4343H114.008V33.9207C114.008 36.7706 115.191 38.1956 117.557 38.1956C120.004 38.1956 121.657 37.3183 122.517 35.5637V19.4343H127.558V41.8914H122.814L122.689 39.692Z" fill="#241A5F"/>
<path d="M138.812 13.9789V19.4343H142.774V23.1715H138.812V35.7066C138.812 36.5638 138.981 37.1829 139.319 37.5639C139.657 37.9449 140.263 38.1354 141.135 38.1354C141.729 38.1331 142.321 38.0625 142.898 37.9248V41.8275C141.819 42.1368 140.702 42.2974 139.579 42.305C135.713 42.305 133.781 40.1669 133.781 35.8908V23.1715H130.089V19.4343H133.781V13.9789H138.812Z" fill="#241A5F"/>
<path d="M153.279 32.2589L151.023 34.5636V41.8914H145.996V10.0123H151.038V28.3938L152.617 26.42L158.821 19.4268H164.882L156.539 28.7886L165.773 41.8839H159.941L153.279 32.2589Z" fill="#241A5F"/>
<path d="M180.865 41.8914C180.574 41.2228 180.379 40.5165 180.286 39.7935C179.534 40.6032 178.62 41.2455 177.604 41.6782C176.587 42.111 175.491 42.3246 174.386 42.305C172.131 42.305 170.291 41.6621 168.867 40.3762C168.183 39.785 167.637 39.0511 167.268 38.2261C166.898 37.4012 166.714 36.5052 166.728 35.6013C166.728 33.2101 167.616 31.3741 169.393 30.0933C171.171 28.8124 173.712 28.172 177.018 28.172H180.109V26.6982C180.16 25.677 179.81 24.6762 179.135 23.9084C178.486 23.2091 177.497 22.8595 176.169 22.8595C175.157 22.8154 174.16 23.1193 173.345 23.7204C173 23.9708 172.72 24.3 172.528 24.6807C172.337 25.0614 172.239 25.4824 172.243 25.9086H167.209C167.219 24.6521 167.651 23.4354 168.435 22.4534C169.304 21.3401 170.448 20.472 171.755 19.9344C173.241 19.3086 174.841 18.9975 176.454 19.0207C179.084 19.0207 181.179 19.6812 182.741 21.0021C184.302 22.3231 185.106 24.1804 185.151 26.5741V36.7029C185.151 38.7232 185.434 40.3349 186 41.538V41.8914H180.865ZM175.323 38.2595C176.311 38.2641 177.284 38.0128 178.146 37.5301C178.984 37.0902 179.673 36.4127 180.128 35.5825V31.349H177.394C175.529 31.349 174.126 31.6736 173.183 32.3228C172.731 32.6229 172.363 33.0344 172.115 33.5177C171.868 34.001 171.749 34.5399 171.77 35.0825C171.751 35.5158 171.827 35.948 171.994 36.3483C172.161 36.7486 172.415 37.1072 172.736 37.3985C173.46 37.999 174.383 38.3062 175.323 38.2595V38.2595Z" fill="#241A5F"/>
<path d="M25.003 4.18874e-05C21.3077 -0.00736799 17.6769 0.968452 14.4832 2.82739L17.0699 7.30903C20.0724 5.5617 23.5679 4.85455 27.0135 5.29738C30.4591 5.74021 33.6621 7.30824 36.1253 9.75802C38.5884 12.2078 40.1738 15.4023 40.6354 18.8454C41.0969 22.2886 40.4088 25.7878 38.6778 28.7998C36.9468 31.8118 34.2699 34.1681 31.0625 35.5027C27.8551 36.8374 24.2969 37.0758 20.9401 36.1809C17.5834 35.286 14.616 33.3079 12.4987 30.5538C10.3814 27.7996 9.23264 24.4234 9.23076 20.9495H4.0686C4.0686 25.0935 5.29765 29.1445 7.60027 32.5899C9.90288 36.0354 13.1756 38.7205 17.0045 40.3057C20.8334 41.8908 25.0464 42.3048 29.1106 41.4952C33.1748 40.6857 36.9076 38.689 39.8368 35.7576C42.7661 32.8263 44.7601 29.0921 45.5668 25.0273C46.3734 20.9625 45.9564 16.7498 44.3685 12.922C42.7805 9.0943 40.0931 5.82349 36.646 3.52334C33.1989 1.2232 29.147 -0.00293302 25.003 4.18874e-05Z" fill="url(#paint0_linear)"/>
<path d="M25.0031 31.5408C26.6309 31.5418 28.2371 31.1678 29.6969 30.4477C31.1568 29.7276 32.4311 28.6809 33.421 27.3886C34.4109 26.0964 35.0897 24.5934 35.4047 22.9964C35.7198 21.3994 35.6626 19.7513 35.2377 18.1799C34.8128 16.6086 34.0315 15.1563 32.9545 13.9357C31.8775 12.7151 30.5337 11.7591 29.0275 11.1419C27.5212 10.5247 25.893 10.2628 24.2692 10.3766C22.6454 10.4905 21.0697 10.9769 19.6643 11.7982L22.2547 16.2874C23.2828 15.6822 24.4821 15.4338 25.6659 15.5807C26.8498 15.7277 27.9519 16.2619 28.8008 17.1001C29.6497 17.9383 30.1977 19.0335 30.3596 20.2155C30.5215 21.3974 30.2883 22.5997 29.6961 23.6353C29.104 24.6709 28.1862 25.4818 27.0854 25.9418C25.9847 26.4018 24.7628 26.485 23.6099 26.1787C22.4569 25.8723 21.4376 25.1934 20.7104 24.2477C19.9832 23.302 19.589 22.1425 19.5891 20.9495H14.4119C14.4119 23.7585 15.5277 26.4524 17.514 28.4387C18.4975 29.4221 19.665 30.2023 20.95 30.7345C22.235 31.2668 23.6123 31.5408 25.0031 31.5408V31.5408Z" fill="url(#paint1_linear)"/>
<path d="M14.4794 12.9788C14.2998 12.9115 14.1069 12.8874 13.9162 12.9083C13.7255 12.9292 13.5424 12.9946 13.3816 13.0991L12.5093 12.772C12.5661 12.4973 12.5963 12.2178 12.5995 11.9373C12.6103 11.291 12.4821 10.6499 12.2236 10.0575L13.1635 9.49726C13.3979 9.59369 13.6564 9.61508 13.9035 9.55849C14.1506 9.5019 14.374 9.37011 14.5431 9.18126C14.7121 8.99242 14.8185 8.7558 14.8475 8.50401C14.8765 8.25221 14.8267 7.99762 14.705 7.77528C14.5782 7.54772 14.3821 7.36649 14.1453 7.25791C13.9085 7.14932 13.6432 7.11902 13.388 7.1714C13.1328 7.22378 12.9009 7.35613 12.726 7.54922C12.5511 7.74232 12.4423 7.98612 12.4153 8.24525L11.4453 8.84306C10.9256 8.26035 10.2636 7.82248 9.52405 7.57226L9.91883 5.75629C10.1534 5.64865 10.348 5.46973 10.4748 5.24503C10.6017 5.02032 10.6545 4.7613 10.6255 4.50486C10.5966 4.24843 10.4875 4.00767 10.3137 3.8169C10.1399 3.62613 9.91034 3.49508 9.6577 3.44242C9.40507 3.38976 9.14227 3.41818 8.90673 3.52363C8.6712 3.62908 8.47497 3.80619 8.34598 4.0297C8.217 4.25322 8.16186 4.51174 8.18842 4.76844C8.21497 5.02513 8.32187 5.26689 8.49387 5.45927L8.08406 7.33915C7.23807 7.33573 6.40817 7.57024 5.68909 8.01591L4.74163 6.84286C4.80544 6.59378 4.78906 6.33092 4.69481 6.0917C4.60056 5.85247 4.43325 5.64907 4.2167 5.51045C4.00014 5.37183 3.74538 5.30506 3.48867 5.31963C3.23196 5.33421 2.98639 5.42939 2.78692 5.59163C2.58745 5.75387 2.44423 5.97489 2.37767 6.22325C2.3111 6.47161 2.32457 6.73463 2.41617 6.97488C2.50777 7.21514 2.67281 7.42037 2.88782 7.56138C3.10283 7.70239 3.35684 7.77198 3.61369 7.76024L4.59123 8.97089C4.01964 9.65297 3.66253 10.4888 3.56482 11.3734L2.16618 11.4561C2.00077 11.2582 1.77712 11.1175 1.52709 11.054C1.27706 10.9906 1.01338 11.0077 0.773617 11.1028C0.533849 11.1979 0.330211 11.3663 0.191697 11.5839C0.0531832 11.8015 -0.013144 12.0573 0.0021596 12.3148C0.0174632 12.5723 0.113617 12.8184 0.276931 13.0181C0.440244 13.2177 0.662391 13.3608 0.91174 13.4269C1.16109 13.4929 1.42493 13.4787 1.66569 13.3861C1.90645 13.2935 2.11185 13.1273 2.25266 12.9111L3.64001 12.8284C3.84791 13.7901 4.36248 14.6583 5.10632 15.3023L4.51228 16.2611C4.25474 16.2832 4.01077 16.3861 3.81525 16.5552C3.61972 16.7242 3.48265 16.9508 3.42364 17.2024C3.36462 17.4541 3.38667 17.718 3.48664 17.9563C3.58661 18.1947 3.75938 18.3954 3.98026 18.5296C4.20113 18.6639 4.4588 18.7249 4.71643 18.7039C4.97407 18.6829 5.21847 18.5811 5.41471 18.4128C5.61095 18.2446 5.74897 18.0186 5.80906 17.7672C5.86914 17.5158 5.8482 17.2518 5.74924 17.013L6.34705 16.0468C7.26882 16.4277 8.29085 16.4925 9.25335 16.231L9.80603 17.3101C9.69253 17.5405 9.65457 17.8009 9.69753 18.0542C9.7405 18.3075 9.86221 18.5408 10.0454 18.721C10.2285 18.9011 10.4638 19.019 10.7177 19.0578C10.9717 19.0966 11.2314 19.0543 11.46 18.9371C11.6886 18.8198 11.8744 18.6335 11.991 18.4045C12.1077 18.1756 12.1492 17.9158 12.1096 17.6619C12.0701 17.4081 11.9516 17.1731 11.7709 16.9905C11.5902 16.8079 11.3566 16.6868 11.1032 16.6446L10.5843 15.6294C11.1644 15.2429 11.648 14.7284 11.998 14.1255L12.874 14.4564C12.9301 14.6587 13.0373 14.8432 13.1852 14.9921C13.3331 15.1411 13.5167 15.2496 13.7186 15.3073C13.9205 15.3649 14.1337 15.3697 14.338 15.3213C14.5423 15.2728 14.7306 15.1727 14.8851 15.0305C15.0396 14.8884 15.1549 14.7089 15.2201 14.5094C15.2853 14.3098 15.2982 14.0969 15.2575 13.8909C15.2168 13.685 15.1238 13.493 14.9876 13.3332C14.8513 13.1735 14.6764 13.0515 14.4794 12.9788V12.9788Z" fill="#FF5252"/>
<path d="M28.071 48.3206H29.2215V52.2683H34.1468V48.3206H35.2973V57.344H34.1468V53.291H29.2215V57.344H28.071V48.3206Z" fill="#595959"/>
<path d="M36.459 54.0091C36.459 51.9262 37.7749 50.5426 39.6285 50.5426C41.2377 50.5426 42.5686 51.554 42.3618 54.073H37.5305C37.5568 55.7085 38.4742 56.5394 39.9593 56.5394C40.7292 56.539 41.4811 56.3072 42.1174 55.874L42.1701 55.9003V56.9229C41.484 57.3152 40.7044 57.514 39.9142 57.4982C37.8275 57.4982 36.459 56.1823 36.459 54.0091ZM37.6208 53.2045H41.2376C41.1888 52.1405 40.6248 51.5013 39.6021 51.5013C38.5795 51.5013 37.8388 52.1179 37.6208 53.2083V53.2045Z" fill="#595959"/>
<path d="M43.5461 47.9634L44.6478 47.6664V57.344H43.5461V47.9634Z" fill="#595959"/>
<path d="M45.802 56.859V55.7725L45.8509 55.7461C46.4483 56.2694 47.2187 56.5521 48.0127 56.5394C48.8813 56.5394 49.3663 56.1635 49.3663 55.5431C49.3663 54.9228 49.0467 54.6972 48.2383 54.4678L47.5315 54.2648C46.4976 53.9715 45.8471 53.3812 45.8471 52.4112C45.8471 51.2344 46.8059 50.5313 48.1481 50.5313C48.7976 50.5065 49.4433 50.642 50.028 50.9261V51.8961L49.9791 51.9225C49.4024 51.6088 48.7557 51.4458 48.0992 51.4487C47.242 51.4487 46.9337 51.8473 46.9337 52.3323C46.9337 52.8173 47.2533 53.1105 47.8285 53.2797L48.5316 53.4828C49.8362 53.8587 50.4754 54.261 50.4754 55.4642C50.4754 56.844 49.2873 57.4831 48.009 57.4831C47.2253 57.5184 46.4512 57.2995 45.802 56.859Z" fill="#595959"/>
<path d="M51.592 48.0123H52.7689V49.1779H51.592V48.0123ZM51.6296 50.6968H52.7313V57.3441H51.6296V50.6968Z" fill="#595959"/>
<path d="M54.3406 50.6968H55.2993L55.3895 51.351C55.9684 50.8372 56.7136 50.5501 57.4875 50.5426C58.8523 50.5426 59.6456 51.2946 59.6456 52.6781V57.344H58.5478V52.9075C58.5478 51.7457 57.9349 51.4637 57.2168 51.4637C56.5793 51.4515 55.9556 51.6497 55.4422 52.0277V57.344H54.3406V50.6968Z" fill="#595959"/>
<path d="M60.3899 58.4719C60.383 58.3004 60.413 58.1294 60.4778 57.9705C60.5427 57.8116 60.6409 57.6685 60.7659 57.5508H61.6607L61.687 57.5884C61.5011 57.8105 61.4011 58.092 61.405 58.3817C61.405 59.0095 62.0066 59.3291 63.2849 59.3291C64.7023 59.3291 65.3415 58.7276 65.3415 58.0095C65.3415 57.4492 65.0633 57.3064 64.2963 57.2575L62.5442 57.1823C61.4163 57.1297 60.9726 56.6447 60.9726 55.9303C60.9698 55.6706 61.0449 55.416 61.1884 55.1995C61.3318 54.983 61.537 54.8145 61.7772 54.7159C61.454 54.5286 61.1874 54.2575 61.0054 53.9313C60.8234 53.605 60.7329 53.2357 60.7433 52.8623C60.7433 51.4562 61.8148 50.5726 63.221 50.5726C63.5861 50.578 63.9465 50.6559 64.2812 50.802V50.802L66.3378 50.6365V51.5314H65.1347C65.3114 51.7048 65.4513 51.912 65.5463 52.1407C65.6412 52.3693 65.6892 52.6148 65.6874 52.8623C65.6874 54.2534 64.5595 55.1182 63.2059 55.1182C62.9693 55.1194 62.7333 55.0929 62.5029 55.0392C62.0667 55.1821 61.9013 55.3964 61.9013 55.716C61.9013 56.0356 62.1307 56.1258 62.6533 56.1521L64.379 56.2273C65.6686 56.2912 66.3867 56.7386 66.3867 57.9944C66.3867 59.3103 65.2212 60.2052 63.2661 60.2052C61.5629 60.1826 60.3899 59.5998 60.3899 58.4719ZM64.7099 52.8736C64.7084 52.5876 64.6222 52.3085 64.4623 52.0715C64.3023 51.8344 64.0757 51.6501 63.8111 51.5417C63.5465 51.4332 63.2557 51.4057 62.9754 51.4624C62.6951 51.5191 62.4379 51.6575 62.2362 51.8602C62.0345 52.063 61.8974 52.3209 61.8421 52.6015C61.7869 52.8821 61.816 53.1727 61.9258 53.4368C62.0355 53.7008 62.2211 53.9265 62.4589 54.0852C62.6968 54.2439 62.9764 54.3286 63.2623 54.3286C63.4573 54.3399 63.6524 54.3093 63.8347 54.2391C64.0169 54.1689 64.182 54.0606 64.319 53.9214C64.4561 53.7823 64.5618 53.6155 64.6292 53.4322C64.6966 53.2489 64.7241 53.0533 64.7099 52.8586V52.8736Z" fill="#595959"/>
<path d="M67.2327 48.0123H68.4095V49.1779H67.2327V48.0123ZM67.2703 50.6968H68.3606V57.3441H67.2627L67.2703 50.6968Z" fill="#595959"/>
<path d="M69.9885 50.6968H70.9473L71.0375 51.351C71.6148 50.8371 72.3588 50.55 73.1317 50.5426C74.5002 50.5426 75.2936 51.2946 75.2936 52.6781V57.344H74.1919V52.9075C74.1919 51.7457 73.5791 51.4637 72.8647 51.4637C72.2261 51.4515 71.6012 51.6496 71.0864 52.0277V57.344H69.9885V50.6968Z" fill="#595959"/>
<path d="M79.4105 56.844V55.671L79.4594 55.6446C80.1661 56.2085 81.0483 56.5066 81.9521 56.4868C83.1177 56.4868 83.7568 55.9116 83.7568 54.9829C83.7568 54.1407 83.3809 53.8212 82.1589 53.3587L81.4935 53.1181C80.2415 52.6556 79.3955 51.9413 79.3955 50.6254C79.3955 49.0914 80.5986 48.1815 82.0537 48.1815C82.8511 48.1359 83.6442 48.3283 84.3321 48.7342V49.8245L84.2794 49.8471C83.6449 49.3887 82.8776 49.151 82.095 49.1703C81.0084 49.1703 80.5084 49.7456 80.5084 50.5652C80.5084 51.2683 80.8543 51.7157 81.8243 52.0691L82.4898 52.3135C83.9335 52.8361 84.8923 53.4001 84.8923 54.919C84.8923 56.6071 83.6516 57.502 81.9521 57.502C81.0592 57.5324 80.1766 57.3039 79.4105 56.844Z" fill="#595959"/>
<path d="M89.9942 56.5922C89.7763 56.8965 89.4847 57.1407 89.1467 57.3018C88.8087 57.4629 88.4354 57.5356 88.0617 57.5133C86.7458 57.5133 85.7607 56.8365 85.7607 55.5808C85.7607 54.2009 86.9112 53.7798 88.4828 53.5355L89.9416 53.3212V53.2422C89.9416 51.9413 89.3927 51.5315 88.2422 51.5315C87.5654 51.512 86.8968 51.684 86.3134 52.0278L86.2608 52.0052V51.0841C86.8804 50.6988 87.6041 50.5149 88.3324 50.5577C90.0055 50.5577 91.0395 51.2758 91.0395 53.1407V57.3441H90.0958L89.9942 56.5922ZM89.9416 55.7349V54.1897L88.7272 54.3664C87.385 54.5732 86.8736 54.8551 86.8736 55.5808C86.8736 56.1823 87.2947 56.5809 88.1407 56.5809C88.4885 56.5966 88.8349 56.5262 89.149 56.376C89.4632 56.2258 89.7354 56.0004 89.9416 55.7199V55.7349Z" fill="#595959"/>
<path d="M92.551 50.6968H93.5098L93.5962 51.351C94.1755 50.8378 94.9204 50.5507 95.6942 50.5426C97.0628 50.5426 97.8561 51.2946 97.8561 52.6781V57.344H96.7544V52.9075C96.7544 51.7457 96.1416 51.4637 95.4272 51.4637C94.7886 51.4515 94.1637 51.6496 93.6489 52.0277V57.344H92.551V50.6968Z" fill="#595959"/>
<path d="M98.905 54.0091C98.905 51.9112 100.36 50.5426 102.289 50.5426C103.211 50.5426 104.096 50.909 104.748 51.5612C105.4 52.2134 105.767 53.098 105.767 54.0204C105.767 54.9428 105.4 55.8273 104.748 56.4796C104.096 57.1318 103.211 57.4982 102.289 57.4982C100.36 57.4982 98.905 56.1033 98.905 54.0091ZM104.605 54.0091C104.605 52.4601 103.62 51.4901 102.289 51.4901C100.958 51.4901 100.003 52.4601 100.003 54.0091C100.003 55.5581 100.962 56.5507 102.289 56.5507C103.616 56.5507 104.605 55.5807 104.605 54.0091V54.0091Z" fill="#595959"/>
<path d="M106.804 50.6967H107.763L107.838 51.3284C108.372 50.8221 109.08 50.5385 109.816 50.5351C110.176 50.5062 110.537 50.5842 110.853 50.7594C111.17 50.9346 111.427 51.1992 111.594 51.5201C111.876 51.217 112.216 50.9736 112.594 50.8044C112.972 50.6351 113.38 50.5436 113.794 50.5351C115.083 50.5351 115.839 51.287 115.839 52.6706V57.344H114.737V52.9075C114.737 51.7457 114.177 51.4637 113.523 51.4637C112.919 51.4478 112.33 51.6478 111.861 52.0277V57.344H110.763V52.9075C110.763 51.7457 110.199 51.4637 109.549 51.4637C108.945 51.4478 108.356 51.6478 107.887 52.0277V57.344H106.789L106.804 50.6967Z" fill="#595959"/>
<path d="M121.121 56.5922C120.903 56.8965 120.612 57.1407 120.274 57.3018C119.936 57.4629 119.563 57.5356 119.189 57.5133C117.873 57.5133 116.888 56.8365 116.888 55.5808C116.888 54.2009 118.038 53.7798 119.61 53.5355L121.069 53.3212V53.2422C121.069 51.9413 120.52 51.5315 119.369 51.5315C118.693 51.512 118.024 51.684 117.441 52.0278L117.388 52.0052V51.0841C118.008 50.6988 118.731 50.5149 119.46 50.5577C121.133 50.5577 122.167 51.2758 122.167 53.1407V57.3441H121.223L121.121 56.5922ZM121.069 55.7349V54.1897L119.869 54.3363C118.527 54.5431 118.016 54.8251 118.016 55.5507C118.016 56.1523 118.437 56.5508 119.283 56.5508C119.626 56.5674 119.967 56.5005 120.278 56.3557C120.589 56.211 120.861 55.9928 121.069 55.7199V55.7349Z" fill="#595959"/>
<path d="M123.103 50.6968H123.971V49.4485L125.069 49.2681V50.7005H126.637V51.6217H125.065V55.8401C125.065 56.3515 125.4 56.5432 125.923 56.5432C126.191 56.5397 126.457 56.5018 126.716 56.4304L126.769 56.4567V57.3102C126.422 57.4255 126.059 57.4827 125.693 57.4794C124.81 57.4794 123.968 57.0696 123.968 55.9567V51.6179H123.103V50.6968Z" fill="#595959"/>
<path d="M129.773 59.1976C130.476 59.1337 130.837 58.8217 130.837 57.7276V50.6968H131.935V57.7915C131.935 59.4007 131.183 60.1037 129.773 60.1827V59.1976ZM130.795 48.0123H131.972V49.1779H130.795V48.0123Z" fill="#595959"/>
<path d="M137.251 56.5921C137.034 56.8967 136.743 57.1411 136.406 57.3022C136.068 57.4634 135.695 57.536 135.322 57.5132C134.006 57.5132 133.021 56.8365 133.021 55.5807C133.021 54.2009 134.171 53.7798 135.743 53.5354L137.202 53.3211V53.2421C137.202 51.9412 136.653 51.5314 135.502 51.5314C134.824 51.5124 134.155 51.6844 133.57 52.0277L133.521 52.0052V51.084C134.139 50.6986 134.862 50.5146 135.589 50.5577C137.266 50.5577 138.3 51.2758 138.3 53.1406V57.344H137.356L137.251 56.5921ZM137.202 55.7349V54.1896L135.987 54.3663C134.645 54.5731 134.134 54.8551 134.134 55.5807C134.134 56.1823 134.555 56.5808 135.397 56.5808C135.746 56.5968 136.093 56.5266 136.407 56.3764C136.722 56.2262 136.995 56.0007 137.202 55.7198V55.7349Z" fill="#595959"/>
<path d="M142.939 48.3206H147.771V49.3169H144.09V52.4563H147.402V53.4376H144.09V57.344H142.939V48.3206Z" fill="#595959"/>
<path d="M153.181 56.7049C152.573 57.2104 151.81 57.4906 151.019 57.4982C149.651 57.4982 148.797 56.7462 148.797 55.3626V50.6968H149.895V55.1333C149.895 56.2951 150.572 56.5771 151.286 56.5771C151.944 56.5838 152.587 56.3868 153.128 56.0131V50.6968H154.226V57.344H153.267L153.181 56.7049Z" fill="#595959"/>
<path d="M155.275 50.6968H156.147V49.4485L157.245 49.2681V50.7005H158.817V51.6217H157.245V55.8401C157.245 56.3515 157.576 56.5432 158.102 56.5432C158.369 56.54 158.635 56.5021 158.892 56.4304L158.945 56.4567V57.3102C158.599 57.4259 158.237 57.483 157.873 57.4794C156.99 57.4794 156.147 57.0696 156.147 55.9567V51.6179H155.275V50.6968Z" fill="#595959"/>
<path d="M164.378 56.7049C163.77 57.2104 163.006 57.4906 162.216 57.4982C160.851 57.4982 159.994 56.7462 159.994 55.3626V50.6968H161.092V55.1333C161.092 56.2951 161.772 56.5771 162.486 56.5771C163.143 56.5838 163.785 56.3867 164.325 56.0131V50.6968H165.427V57.344H164.468L164.378 56.7049Z" fill="#595959"/>
<path d="M166.987 50.6967H167.946L168.047 51.5803C168.224 51.2691 168.483 51.0126 168.796 50.8388C169.109 50.6651 169.464 50.5808 169.822 50.5952C170.002 50.592 170.183 50.6097 170.359 50.6478V51.6291L170.295 51.6705C170.142 51.622 169.983 51.5955 169.822 51.5915C169.479 51.5552 169.134 51.6177 168.826 51.7716C168.518 51.9255 168.261 52.1644 168.085 52.46V57.3477H166.987V50.6967Z" fill="#595959"/>
<path d="M171.307 48.0123H172.484V49.1779H171.307V48.0123ZM171.344 50.6968H172.442V57.3441H171.344V50.6968Z" fill="#595959"/>
<path d="M173.593 54.0091C173.593 51.8736 175.097 50.5426 177.007 50.5426C177.643 50.5161 178.275 50.6629 178.834 50.9674V51.9487L178.785 51.9751C178.241 51.6706 177.63 51.5077 177.007 51.5013C175.728 51.5013 174.706 52.3849 174.706 54.0091C174.706 55.6333 175.616 56.5507 177.033 56.5507C177.722 56.5589 178.394 56.3439 178.95 55.9379L179.003 55.9642V56.9229C178.44 57.3307 177.754 57.5337 177.059 57.4982C175.025 57.4982 173.593 56.1183 173.593 54.0091Z" fill="#595959"/>
<path d="M179.541 54.0091C179.541 51.9262 180.857 50.5426 182.71 50.5426C184.319 50.5426 185.65 51.554 185.444 54.073H180.624C180.65 55.7085 181.571 56.5394 183.052 56.5394C183.823 56.5395 184.577 56.3077 185.214 55.874L185.267 55.9003V56.9229C184.581 57.3148 183.801 57.5136 183.011 57.4982C180.906 57.4982 179.541 56.1823 179.541 54.0091ZM180.703 53.2083H184.319C184.267 52.1443 183.707 51.5051 182.684 51.5051C181.661 51.5051 180.921 52.1179 180.703 53.2083Z" fill="#595959"/>
<defs>
<linearGradient id="paint0_linear" x1="9.26836" y1="11.8621" x2="43.1476" y2="31.4242" gradientUnits="userSpaceOnUse">
<stop stop-color="#FF5252"/>
<stop offset="0.14" stop-color="#D34656"/>
<stop offset="0.37" stop-color="#92345B"/>
<stop offset="0.58" stop-color="#5F265F"/>
<stop offset="0.76" stop-color="#3A1C62"/>
<stop offset="0.91" stop-color="#231663"/>
<stop offset="1" stop-color="#1B1464"/>
</linearGradient>
<linearGradient id="paint1_linear" x1="1508.32" y1="1492.81" x2="2474.45" y2="2050.65" gradientUnits="userSpaceOnUse">
<stop stop-color="#FF5252"/>
<stop offset="0.14" stop-color="#D34656"/>
<stop offset="0.37" stop-color="#92345B"/>
<stop offset="0.58" stop-color="#5F265F"/>
<stop offset="0.76" stop-color="#3A1C62"/>
<stop offset="0.91" stop-color="#231663"/>
<stop offset="1" stop-color="#1B1464"/>
</linearGradient>
</defs>
</svg>
