<svg width="185" height="61" viewBox="0 0 185 61" fill="none" xmlns="http://www.w3.org/2000/svg">
<path d="M49.0996 13.4848C49.0912 13.1326 49.1526 12.7822 49.2803 12.454C49.408 12.1258 49.5994 11.8263 49.8435 11.5728C50.1212 11.311 50.4499 11.1096 50.809 10.9814C51.1681 10.8531 51.5498 10.8006 51.9301 10.8273C52.3114 10.8016 52.6939 10.8545 53.0541 10.9827C53.4142 11.1109 53.7444 11.3117 54.024 11.5728C54.2693 11.8254 54.4616 12.1248 54.5894 12.4532C54.7171 12.7816 54.7778 13.1324 54.7679 13.4848C54.7749 13.8295 54.7127 14.1721 54.5849 14.4923C54.4571 14.8124 54.2664 15.1036 54.024 15.3483C53.744 15.6088 53.4138 15.8093 53.0538 15.9375C52.6937 16.0656 52.3113 16.1188 51.9301 16.0938C51.5498 16.1198 51.1683 16.067 50.8093 15.9388C50.4503 15.8105 50.1216 15.6095 49.8435 15.3483C49.6029 15.1023 49.4133 14.811 49.2856 14.4911C49.1579 14.1713 49.0947 13.8292 49.0996 13.4848V13.4848ZM54.396 41.5278H49.4009V19.2656H54.3885L54.396 41.5278Z" fill="#1E1E1E"/>
<path d="M69.8573 23.8351C69.1849 23.7234 68.5044 23.6685 67.8228 23.6711C65.5391 23.6711 63.9993 24.5483 63.2034 26.3025V41.5279H58.2195V19.2657H62.984L63.1067 21.7554C64.3118 19.8222 65.9817 18.8557 68.1166 18.8557C68.7172 18.8375 69.3157 18.9349 69.8796 19.1427L69.8573 23.8351Z" fill="#1E1E1E"/>
<path d="M81.9524 41.9377C78.7909 41.9377 76.2283 40.9438 74.2645 38.956C72.3007 36.9682 71.3188 34.3107 71.3188 30.9837V30.3649C71.2821 28.3046 71.7213 26.2637 72.6019 24.4015C73.39 22.7194 74.6402 21.2973 76.206 20.3017C77.7583 19.3305 79.5572 18.8284 81.387 18.8555C84.4146 18.8555 86.7515 19.8221 88.398 21.7553C90.0444 23.6884 90.8701 26.4216 90.875 29.955V31.9676H76.3696C76.5234 33.8088 77.1358 35.2637 78.207 36.3321C78.7387 36.8612 79.3724 37.2761 80.0694 37.5517C80.7664 37.8272 81.5121 37.9576 82.2611 37.9348C83.3451 37.9543 84.4178 37.7123 85.3889 37.229C86.3599 36.7457 87.2006 36.0354 87.8401 35.1581L90.5291 37.7298C89.6368 39.0608 88.407 40.1298 86.966 40.827C85.4033 41.5818 83.6869 41.962 81.9524 41.9377V41.9377ZM81.3573 22.8659C80.7319 22.8429 80.1093 22.9606 79.5352 23.2102C78.9611 23.4598 78.4501 23.835 78.0396 24.3083C77.1966 25.265 76.6585 26.6018 76.4254 28.3187H85.932V27.946C85.8205 26.2738 85.3754 25.0078 84.5968 24.1481C83.8182 23.2883 82.7384 22.861 81.3573 22.8659V22.8659Z" fill="#1E1E1E"/>
<path d="M100.605 13.8574V19.2655H104.525V22.9703H100.605V35.3966C100.605 36.2464 100.773 36.8601 101.107 37.2378C101.442 37.6155 102.041 37.8043 102.904 37.8043C103.491 37.8023 104.077 37.7323 104.648 37.5956V41.4644C103.58 41.7712 102.475 41.9304 101.364 41.9377C97.533 41.9377 95.6175 39.8182 95.6175 35.5792V22.9703H91.9614V19.2655H95.6175V13.8574H100.605Z" fill="#1E1E1E"/>
<path d="M121.37 39.3475C119.905 41.0744 117.824 41.9378 115.129 41.9378C112.719 41.9378 110.894 41.2309 109.654 39.8171C108.414 38.4033 107.794 36.3608 107.794 33.6897V19.2656H112.782V33.6263C112.782 36.4515 113.952 37.8641 116.293 37.8641C118.713 37.8641 120.348 36.9944 121.199 35.2551V19.2656H126.187V41.5278H121.493L121.37 39.3475Z" fill="#1E1E1E"/>
<path d="M137.319 13.8574V19.2655H141.239V22.9703H137.319V35.3966C137.319 36.2464 137.486 36.8601 137.821 37.2378C138.155 37.6155 138.754 37.8043 139.617 37.8043C140.205 37.8021 140.79 37.732 141.361 37.5956V41.4644C140.293 41.771 139.188 41.9302 138.077 41.9377C134.254 41.9377 132.342 39.8182 132.342 35.5792V22.9703H128.69V19.2655H132.342V13.8574H137.319Z" fill="#1E1E1E"/>
<path d="M151.631 31.9788L149.399 34.2635V41.5277H144.426V9.92529H149.414V28.1473L150.976 26.1905L157.113 19.2581H163.109L154.855 28.5386L163.99 41.5203H158.221L151.631 31.9788Z" fill="#1E1E1E"/>
<path d="M178.919 41.5278C178.632 40.8649 178.439 40.1648 178.347 39.448C177.603 40.2508 176.699 40.8874 175.694 41.3164C174.688 41.7454 173.604 41.9572 172.511 41.9378C170.279 41.9378 168.459 41.3004 167.051 40.0257C166.374 39.4397 165.834 38.7121 165.469 37.8943C165.103 37.0765 164.921 36.1883 164.935 35.2923C164.935 32.9218 165.814 31.1017 167.572 29.832C169.33 28.5623 171.844 27.9274 175.114 27.9274H178.172V26.4664C178.222 25.4541 177.876 24.462 177.208 23.7009C176.566 23.0076 175.588 22.661 174.274 22.661C173.273 22.6173 172.287 22.9186 171.481 23.5145C171.139 23.7626 170.862 24.089 170.673 24.4664C170.483 24.8438 170.386 25.2612 170.391 25.6837H165.411C165.421 24.4381 165.848 23.2319 166.623 22.2584C167.483 21.1548 168.615 20.2943 169.907 19.7613C171.378 19.1409 172.961 18.8326 174.557 18.8556C177.158 18.8556 179.23 19.5103 180.775 20.8198C182.32 22.1292 183.115 23.9704 183.159 26.3434V36.3843C183.159 38.387 183.44 39.9847 184 41.1774V41.5278H178.919ZM173.437 37.9274C174.415 37.9319 175.377 37.6828 176.23 37.2043C177.059 36.7682 177.741 36.0966 178.19 35.2736V31.0769H175.486C173.642 31.0769 172.253 31.3986 171.321 32.0422C170.873 32.3397 170.509 32.7476 170.264 33.2267C170.019 33.7058 169.902 34.24 169.922 34.7779C169.903 35.2075 169.979 35.6359 170.145 36.0328C170.31 36.4296 170.56 36.785 170.878 37.0738C171.594 37.6691 172.507 37.9737 173.437 37.9274V37.9274Z" fill="#1E1E1E"/>
<path d="M24.7342 4.15239e-05C21.0786 -0.00730405 17.4869 0.960048 14.3275 2.80285L16.8864 7.2456C19.8566 5.51343 23.3145 4.81242 26.7231 5.25141C30.1316 5.69039 33.3002 7.24482 35.7369 9.67334C38.1735 12.1019 39.7419 15.2686 40.1985 18.6819C40.6551 22.0952 39.9743 25.564 38.262 28.5499C36.5496 31.5358 33.9014 33.8716 30.7285 35.1946C27.5557 36.5177 24.0356 36.754 20.715 35.8669C17.3944 34.9798 14.4589 33.0189 12.3644 30.2886C10.2698 27.5584 9.13341 24.2115 9.13155 20.7677H4.0249C4.0249 24.8758 5.24073 28.8916 7.51859 32.3071C9.79645 35.7226 13.034 38.3845 16.8217 39.9559C20.6094 41.5273 24.7771 41.9377 28.7976 41.1352C32.8181 40.3326 36.5108 38.3532 39.4085 35.4473C42.3062 32.5414 44.2788 28.8396 45.0768 24.8101C45.8748 20.7806 45.4622 16.6044 43.8914 12.8099C42.3206 9.01538 39.662 5.77295 36.252 3.49277C32.8419 1.21259 28.8337 -0.00290757 24.7342 4.15239e-05Z" fill="#1E1E1E"/>
<path d="M24.7342 31.267C26.3445 31.2681 27.9334 30.8973 29.3775 30.1835C30.8217 29.4696 32.0823 28.4319 33.0615 27.1509C34.0408 25.8699 34.7123 24.38 35.024 22.7968C35.3356 21.2137 35.2791 19.5799 34.8587 18.0221C34.4384 16.4644 33.6655 15.0247 32.6001 13.8147C31.5346 12.6048 30.2053 11.6571 28.7153 11.0452C27.2252 10.4333 25.6145 10.1737 24.0082 10.2866C22.4018 10.3994 20.843 10.8816 19.4528 11.6958L22.0154 16.146C23.0324 15.5461 24.2187 15.2998 25.3899 15.4455C26.561 15.5912 27.6513 16.1207 28.491 16.9516C29.3308 17.7826 29.8729 18.8683 30.0331 20.04C30.1933 21.2117 29.9625 22.4035 29.3767 23.4302C28.791 24.4568 27.883 25.2607 26.7941 25.7167C25.7052 26.1726 24.4965 26.2552 23.3559 25.9515C22.2154 25.6477 21.207 24.9748 20.4876 24.0373C19.7683 23.0998 19.3783 21.9503 19.3784 20.7677H14.2568C14.2568 23.5523 15.3607 26.2228 17.3256 28.1918C18.2985 29.1668 19.4535 29.9402 20.7247 30.4678C21.9959 30.9955 23.3583 31.267 24.7342 31.267V31.267Z" fill="#1E1E1E"/>
<path d="M14.3237 12.8662C14.146 12.7995 13.9552 12.7756 13.7665 12.7963C13.5779 12.817 13.3968 12.8818 13.2377 12.9854L12.3748 12.6612C12.431 12.3889 12.4609 12.1118 12.4641 11.8337C12.4747 11.193 12.3479 10.5575 12.0921 9.97017L13.022 9.41483C13.2538 9.51042 13.5096 9.53163 13.754 9.47553C13.9984 9.41943 14.2194 9.28878 14.3867 9.10157C14.5539 8.91437 14.6591 8.67981 14.6878 8.4302C14.7165 8.18059 14.6673 7.9282 14.5469 7.7078C14.4214 7.48221 14.2274 7.30255 13.9932 7.19491C13.7589 7.08726 13.4965 7.05723 13.244 7.10916C12.9916 7.16108 12.7622 7.29228 12.5891 7.4837C12.4161 7.67512 12.3085 7.9168 12.2818 8.17369L11.3222 8.7663C10.8081 8.18866 10.1533 7.75459 9.42164 7.50653L9.81217 5.70632C10.0442 5.59962 10.2367 5.42225 10.3622 5.1995C10.4877 4.97674 10.5399 4.71997 10.5113 4.46576C10.4827 4.21155 10.3747 3.97288 10.2028 3.78377C10.0309 3.59465 9.80377 3.46473 9.55385 3.41253C9.30394 3.36033 9.04396 3.3885 8.81096 3.49304C8.57796 3.59758 8.38383 3.77314 8.25624 3.99472C8.12865 4.2163 8.0741 4.47258 8.10037 4.72704C8.12663 4.9815 8.23238 5.22117 8.40254 5.41188L7.99713 7.27545C7.16024 7.27206 6.33927 7.50454 5.62791 7.94633L4.69064 6.78347C4.75377 6.53655 4.73756 6.27597 4.64433 6.03882C4.55109 5.80167 4.38558 5.60004 4.17136 5.46262C3.95713 5.3252 3.7051 5.25901 3.45116 5.27346C3.19721 5.2879 2.95428 5.38226 2.75695 5.54309C2.55962 5.70392 2.41795 5.92303 2.3521 6.16923C2.28625 6.41543 2.29958 6.67617 2.39019 6.91434C2.4808 7.15251 2.64407 7.35597 2.85677 7.49575C3.06947 7.63553 3.32074 7.70452 3.57484 7.69289L4.54186 8.89303C3.97642 9.56919 3.62315 10.3978 3.52648 11.2747L2.14289 11.3567C1.97925 11.1605 1.75801 11.021 1.51067 10.9581C1.26332 10.8952 1.00249 10.9121 0.765298 11.0064C0.528109 11.1008 0.32666 11.2677 0.189636 11.4834C0.0526113 11.6991 -0.0130026 11.9526 0.00213638 12.2079C0.0172754 12.4632 0.112396 12.7071 0.273953 12.9051C0.43551 13.103 0.655268 13.2448 0.901935 13.3103C1.1486 13.3758 1.4096 13.3617 1.64777 13.2699C1.88595 13.1781 2.08914 13.0133 2.22844 12.7991L3.60087 12.7171C3.80653 13.6704 4.31557 14.5311 5.05141 15.1695L4.46376 16.12C4.20899 16.1418 3.96764 16.2439 3.77422 16.4115C3.5808 16.5791 3.4452 16.8037 3.38682 17.0531C3.32844 17.3026 3.35025 17.5642 3.44915 17.8005C3.54804 18.0368 3.71896 18.2357 3.93746 18.3688C4.15596 18.5019 4.41086 18.5624 4.66572 18.5416C4.92058 18.5208 5.16235 18.4198 5.35648 18.253C5.55061 18.0862 5.68715 17.8622 5.74659 17.613C5.80603 17.3638 5.78532 17.1021 5.68742 16.8654L6.2788 15.9075C7.19066 16.2852 8.20169 16.3494 9.15384 16.0901L9.70059 17.1598C9.58831 17.3883 9.55075 17.6464 9.59326 17.8975C9.63576 18.1486 9.75616 18.3799 9.93734 18.5585C10.1185 18.7371 10.3513 18.8539 10.6025 18.8924C10.8537 18.9308 11.1107 18.889 11.3368 18.7727C11.5629 18.6565 11.7467 18.4717 11.8621 18.2448C11.9775 18.0179 12.0185 17.7603 11.9794 17.5086C11.9403 17.257 11.8231 17.0241 11.6443 16.843C11.4656 16.662 11.2344 16.542 10.9838 16.5001L10.4705 15.4938C11.0443 15.1106 11.5227 14.6005 11.869 14.0029L12.7356 14.3309C12.7911 14.5315 12.8971 14.7143 13.0434 14.862C13.1897 15.0097 13.3714 15.1173 13.5711 15.1744C13.7708 15.2316 13.9818 15.2363 14.1838 15.1883C14.3859 15.1403 14.5722 15.041 14.725 14.9001C14.8778 14.7592 14.992 14.5813 15.0565 14.3834C15.121 14.1856 15.1337 13.9745 15.0934 13.7704C15.0531 13.5662 14.9612 13.3759 14.8264 13.2175C14.6916 13.0592 14.5186 12.9382 14.3237 12.8662V12.8662Z" fill="#FF5252"/>
<path d="M30 48.5906H31.1255V52.4505H35.9466V48.5906H37.1034V57.4258H35.9779V53.4531H31.1568V57.4258H30.0313L30 48.5906Z" fill="#595959"/>
<path d="M38.2037 54.1548C38.2037 52.112 39.4918 50.7585 41.3302 50.7585C42.9122 50.7585 44.2128 51.7486 44.0127 54.2174H39.2917C39.2917 55.8216 40.2234 56.6361 41.6741 56.6361C42.4253 56.644 43.1616 56.4257 43.7876 56.0095H43.8376V57.0121C43.1682 57.3958 42.4076 57.5907 41.6366 57.5761C41.1774 57.6158 40.7151 57.5548 40.2818 57.3972C39.8486 57.2396 39.4548 56.9892 39.128 56.6635C38.8012 56.3378 38.5493 55.9446 38.3896 55.5114C38.23 55.0781 38.1665 54.6151 38.2037 54.1548V54.1548ZM39.3417 53.3652H42.8872C42.8371 52.3251 42.2619 51.6985 41.2864 51.6985C40.8119 51.678 40.3473 51.8386 39.9864 52.148C39.6255 52.4573 39.3951 52.8923 39.3417 53.3652Z" fill="#595959"/>
<path d="M45.1321 48.2272L46.2076 47.939V57.4259H45.1321V48.2272Z" fill="#595959"/>
<path d="M47.3584 56.9496V55.8844H47.4084C47.9938 56.3988 48.7497 56.6759 49.5282 56.6614C50.3723 56.6614 50.8476 56.2979 50.8476 55.6838C50.8476 55.0698 50.5349 54.8567 49.7408 54.6311L49.0467 54.4306C48.0337 54.1424 47.3959 53.5659 47.3959 52.6135C47.3959 51.4605 48.3339 50.7336 49.647 50.7336C50.2843 50.7106 50.9175 50.844 51.4916 51.1221V52.0746H51.4416C50.8792 51.769 50.2493 51.6095 49.6095 51.6109C48.7716 51.6109 48.4714 51.9994 48.4714 52.4756C48.4714 52.9518 48.7841 53.2401 49.3468 53.403L50.0347 53.6035C51.2853 53.9795 51.9419 54.368 51.9419 55.546C51.9419 56.8995 50.7788 57.5261 49.5282 57.5261C48.7619 57.5722 48.0012 57.3701 47.3584 56.9496V56.9496Z" fill="#595959"/>
<path d="M53.0112 48.2772H54.1618V49.4177H53.0112V48.2772ZM53.0487 50.909H54.1243V57.4257H53.0487V50.909Z" fill="#595959"/>
<path d="M55.7 50.9091H56.638L56.7255 51.5358C57.2914 51.0326 58.0201 50.7521 58.7765 50.7462C59.0602 50.7114 59.3481 50.7421 59.6181 50.8358C59.8882 50.9295 60.1333 51.0838 60.3348 51.2869C60.5363 51.49 60.6888 51.7366 60.7807 52.0077C60.8726 52.2789 60.9014 52.5676 60.865 52.8516V57.4259H59.7958V53.0772C59.7958 51.9368 59.1705 51.6611 58.4889 51.6611C57.8648 51.6493 57.2542 51.843 56.7506 52.2125V57.4259H55.675L55.7 50.9091Z" fill="#595959"/>
<path d="M61.6153 58.516C61.6113 58.3465 61.6439 58.1782 61.7108 58.0224C61.7777 57.8667 61.8774 57.7273 62.003 57.6137H62.8784V57.6513C62.6978 57.8695 62.6003 58.1448 62.6033 58.4283C62.6033 59.0549 63.1911 59.3557 64.4792 59.3557C65.8674 59.3557 66.4927 58.7667 66.4927 58.0649C66.4927 57.5134 66.2175 57.3756 65.4671 57.338L63.7538 57.2628C62.6658 57.2127 62.2156 56.7365 62.2156 56.0096C62.2103 55.7543 62.2829 55.5036 62.4237 55.2908C62.5645 55.078 62.7668 54.9134 63.0035 54.819C62.6871 54.6354 62.4261 54.3697 62.2478 54.0499C62.0695 53.7301 61.9806 53.368 61.9905 53.0018C61.9884 52.6905 62.0513 52.3821 62.175 52.0964C62.2987 51.8108 62.4806 51.5542 62.709 51.343C62.9374 51.1319 63.2072 50.9708 63.5013 50.8702C63.7953 50.7695 64.1071 50.7315 64.4166 50.7586C64.7742 50.7634 65.1272 50.8401 65.4547 50.9842L67.4681 50.8212V51.6985H66.2988C66.6412 52.0453 66.8323 52.514 66.8303 53.0018C66.8303 54.3679 65.7298 55.195 64.4042 55.195C64.1728 55.1961 63.942 55.1709 63.7163 55.1198C63.2911 55.2576 63.1285 55.4707 63.1285 55.784C63.1285 56.0973 63.3536 56.185 63.8664 56.2101L65.5547 56.2853C66.8053 56.3479 67.5244 56.7866 67.5244 58.0147C67.5244 59.2429 66.3801 60.1828 64.4667 60.1828C62.7409 60.2079 61.6153 59.6439 61.6153 58.516ZM65.8674 53.0394C65.8649 52.7599 65.7799 52.4873 65.6231 52.2561C65.4664 52.0249 65.2448 51.8453 64.9864 51.7401C64.7279 51.6348 64.4442 51.6085 64.1709 51.6646C63.8976 51.7206 63.647 51.8565 63.4506 52.055C63.2542 52.2536 63.1208 52.5059 63.0673 52.7803C63.0138 53.0546 63.0425 53.3387 63.1498 53.5968C63.2571 53.8548 63.4382 54.0752 63.6704 54.2303C63.9025 54.3854 64.1752 54.4681 64.4542 54.4681C64.643 54.4762 64.8314 54.4447 65.0074 54.3756C65.1833 54.3065 65.3429 54.2014 65.4759 54.0669C65.609 53.9324 65.7125 53.7715 65.7799 53.5946C65.8473 53.4176 65.8771 53.2286 65.8674 53.0394Z" fill="#595959"/>
<path d="M68.3186 48.2772H69.4692V49.4177H68.3186V48.2772ZM68.3561 50.909H69.4316V57.4257H68.3686L68.3561 50.909Z" fill="#595959"/>
<path d="M71.0073 50.9089H71.9453L72.0328 51.5356C72.5986 51.0324 73.3273 50.7519 74.0838 50.746C74.3687 50.7064 74.6589 50.7329 74.9319 50.8236C75.2049 50.9142 75.4535 51.0666 75.6584 51.2689C75.8633 51.4712 76.019 51.718 76.1136 51.9902C76.2081 52.2625 76.2389 52.5528 76.2035 52.8389V57.4257H75.1218V53.077C75.1218 51.9366 74.4965 51.6609 73.8212 51.6609C73.1971 51.6491 72.5864 51.8428 72.0828 52.2123V57.4257H71.0073V50.9089Z" fill="#595959"/>
<path d="M80.2488 56.937V55.784H80.2988C80.9889 56.3394 81.8527 56.6323 82.7375 56.6112C83.8755 56.6112 84.5008 56.0472 84.5008 55.1324C84.5008 54.2175 84.1506 53.9919 82.9376 53.5408L82.3123 53.3027C81.0617 52.8515 80.2613 52.1497 80.2613 50.8589C80.2613 49.355 81.4368 48.4652 82.8625 48.4652C83.6414 48.42 84.4162 48.6076 85.0886 49.0041V50.0694H85.0386C84.4173 49.6198 83.6661 49.3865 82.9 49.4051C81.837 49.4051 81.3493 49.9691 81.3493 50.7712C81.3493 51.4604 81.687 51.8991 82.6374 52.25L83.2627 52.4881C84.6759 53.0019 85.6138 53.5533 85.6138 55.0446C85.6138 56.6989 84.4008 57.5511 82.7375 57.5511C81.8664 57.5891 81.0027 57.376 80.2488 56.937V56.937Z" fill="#595959"/>
<path d="M90.5794 56.6739C90.368 56.9706 90.0851 57.209 89.7571 57.3667C89.4292 57.5245 89.0667 57.5966 88.7035 57.5763C87.4153 57.5763 86.4524 56.912 86.4524 55.6964C86.4524 54.3429 87.5779 53.9294 89.1162 53.6913L90.5418 53.4782V53.403C90.5418 52.1498 90.0041 51.7237 88.8785 51.7237C88.2199 51.7075 87.57 51.8769 87.0026 52.2125H86.9526V51.3101C87.5587 50.9332 88.2665 50.7537 88.9786 50.7963C90.6169 50.7963 91.6299 51.4981 91.6299 53.3028V57.4259H90.7044L90.5794 56.6739ZM90.5293 55.8343V54.2928L89.3413 54.4683C88.0281 54.6688 87.5279 54.9445 87.5279 55.6588C87.5279 56.2478 87.9406 56.6363 88.7785 56.6363C89.1134 56.6548 89.4477 56.5914 89.7526 56.4517C90.0576 56.312 90.3242 56.1001 90.5293 55.8343Z" fill="#595959"/>
<path d="M93.0803 50.9089H94.0058L94.0933 51.5355C94.6592 51.0324 95.3878 50.7519 96.1443 50.746C96.4287 50.7074 96.7182 50.7347 96.9904 50.8259C97.2627 50.917 97.5104 51.0695 97.7145 51.2717C97.9187 51.4739 98.0738 51.7203 98.168 51.992C98.2622 52.2637 98.2929 52.5534 98.2578 52.8389V57.4257H97.1948V53.077C97.1948 51.9366 96.5695 51.6609 95.8942 51.6609C95.2701 51.6491 94.6594 51.8428 94.1558 52.2123V57.4257H93.0803V50.9089Z" fill="#595959"/>
<path d="M99.2957 54.155C99.2957 53.2709 99.6461 52.423 100.27 51.7978C100.894 51.1726 101.74 50.8214 102.622 50.8214C103.505 50.8214 104.351 51.1726 104.975 51.7978C105.598 52.423 105.949 53.2709 105.949 54.155C105.949 55.0391 105.598 55.887 104.975 56.5122C104.351 57.1373 103.505 57.4885 102.622 57.4885C101.74 57.4885 100.894 57.1373 100.27 56.5122C99.6461 55.887 99.2957 55.0391 99.2957 54.155V54.155ZM104.873 54.155C104.903 53.8403 104.867 53.5228 104.766 53.2232C104.666 52.9235 104.503 52.6484 104.29 52.4156C104.077 52.1828 103.817 51.9976 103.527 51.8719C103.238 51.7463 102.925 51.683 102.61 51.6861C101.309 51.6861 100.371 52.6386 100.371 54.155C100.371 55.6714 101.309 56.6614 102.61 56.6614C103.91 56.6614 104.873 55.6964 104.873 54.155Z" fill="#595959"/>
<path d="M107.025 50.909H107.962L108.05 51.5356C108.574 51.0387 109.267 50.7609 109.988 50.7586C110.341 50.7308 110.693 50.8075 111.002 50.9791C111.312 51.1507 111.563 51.4096 111.727 51.7236C112.004 51.4266 112.338 51.1882 112.708 51.0224C113.079 50.8567 113.478 50.767 113.884 50.7586C115.135 50.7586 115.885 51.498 115.885 52.8515V57.4258H114.809V53.0771C114.809 51.9366 114.253 51.6609 113.621 51.6609C113.029 51.6453 112.451 51.8407 111.989 52.2124V57.4258H110.889V53.0771C110.889 51.9366 110.339 51.6609 109.701 51.6609C109.111 51.6468 108.535 51.8421 108.075 52.2124V57.4258H107L107.025 50.909Z" fill="#595959"/>
<path d="M121.031 56.6739C120.82 56.9706 120.537 57.209 120.209 57.3667C119.881 57.5245 119.518 57.5966 119.155 57.5763C117.867 57.5763 116.904 56.912 116.904 55.6964C116.904 54.3429 118.03 53.9294 119.568 53.6913L120.994 53.4782V53.403C120.994 52.1498 120.456 51.7237 119.33 51.7237C118.672 51.7075 118.022 51.8769 117.454 52.2125H117.404V51.3101C118.01 50.9332 118.718 50.7537 119.43 50.7963C121.069 50.7963 122.082 51.4981 122.082 53.3028V57.4259H121.156L121.031 56.6739ZM120.981 55.8343V54.2928L119.793 54.4683C118.48 54.6688 117.98 54.9445 117.98 55.6588C117.98 56.2478 118.392 56.6363 119.23 56.6363C119.565 56.6548 119.899 56.5914 120.204 56.4517C120.509 56.312 120.776 56.1001 120.981 55.8343V55.8343Z" fill="#595959"/>
<path d="M122.969 50.9091H123.82V49.6559L124.895 49.4805V50.8841H126.434V51.7864H124.895V55.9095C124.895 56.4108 125.221 56.5988 125.733 56.5988C125.996 56.5947 126.256 56.5568 126.509 56.486H126.559V57.3256C126.22 57.4374 125.865 57.4925 125.508 57.4886C124.645 57.4886 123.82 57.0875 123.82 55.9972V51.7864H122.969V50.9091Z" fill="#595959"/>
<path d="M129.498 59.2429C130.185 59.1802 130.536 58.8669 130.536 57.8017V50.909H131.611V57.8644C131.611 59.4434 130.861 60.1327 129.498 60.2079V59.2429ZM130.498 48.2772H131.649V49.4177H130.498V48.2772Z" fill="#595959"/>
<path d="M136.813 56.6739C136.602 56.9706 136.319 57.209 135.991 57.3667C135.663 57.5245 135.301 57.5966 134.938 57.5763C133.649 57.5763 132.687 56.912 132.687 55.6964C132.687 54.3429 133.812 53.9294 135.35 53.6913L136.776 53.4782V53.403C136.776 52.1498 136.238 51.7237 135.113 51.7237C134.454 51.7075 133.804 51.8769 133.237 52.2125H133.187V51.3101C133.793 50.9332 134.501 50.7537 135.213 50.7963C136.851 50.7963 137.864 51.4981 137.864 53.3028V57.4259H136.939L136.813 56.6739ZM136.763 55.8343V54.2928L135.575 54.4683C134.262 54.6688 133.762 54.9445 133.762 55.6588C133.762 56.2478 134.175 56.6363 135.013 56.6363C135.347 56.6548 135.682 56.5914 135.987 56.4517C136.292 56.312 136.558 56.1001 136.763 55.8343Z" fill="#595959"/>
<path d="M142.379 48.5906H147.106V49.5681H143.504V52.6134H146.743V53.5784H143.504V57.4258H142.379V48.5906Z" fill="#595959"/>
<path d="M152.396 56.7991C151.802 57.2936 151.055 57.568 150.283 57.5761C148.945 57.5761 148.107 56.8367 148.107 55.4832V50.9089H149.182V55.2576C149.182 56.398 149.845 56.6738 150.545 56.6738C151.188 56.6798 151.817 56.4872 152.346 56.1223V50.9089H153.409V57.4257H152.471L152.396 56.7991Z" fill="#595959"/>
<path d="M154.447 50.9091H155.285V49.6559L156.36 49.4805V50.8841H157.899V51.7864H156.36V55.9095C156.36 56.4108 156.686 56.5988 157.198 56.5988C157.461 56.5947 157.721 56.5568 157.974 56.486H158.024V57.3256C157.685 57.4374 157.33 57.4925 156.973 57.4886C156.11 57.4886 155.285 57.0875 155.285 55.9972V51.7864H154.435L154.447 50.9091Z" fill="#595959"/>
<path d="M163.351 56.7991C162.757 57.2936 162.01 57.568 161.238 57.5761C159.9 57.5761 159.062 56.8367 159.062 55.4832V50.9089H160.137V55.2576C160.137 56.398 160.8 56.6738 161.5 56.6738C162.143 56.6798 162.772 56.4872 163.301 56.1223V50.9089H164.377V57.4257H163.414L163.351 56.7991Z" fill="#595959"/>
<path d="M165.915 50.9092H166.853L166.953 51.7739C167.126 51.4685 167.38 51.2169 167.687 51.0466C167.994 50.8764 168.341 50.7941 168.691 50.8089C168.868 50.8071 169.044 50.8239 169.217 50.8591V51.8241L169.154 51.8617C169.004 51.8163 168.848 51.7911 168.691 51.7865C168.356 51.75 168.018 51.811 167.716 51.9621C167.414 52.1132 167.163 52.348 166.991 52.6387V57.426H165.915V50.9092Z" fill="#595959"/>
<path d="M170.129 48.2772H171.28V49.4177H170.129V48.2772ZM170.167 50.909H171.242V57.4257H170.167V50.909Z" fill="#595959"/>
<path d="M172.368 54.1549C172.343 53.7067 172.412 53.2582 172.571 52.8383C172.729 52.4183 172.973 52.0362 173.288 51.7164C173.602 51.3966 173.98 51.1462 174.397 50.9813C174.813 50.8164 175.26 50.7405 175.707 50.7587C176.33 50.7329 176.947 50.8758 177.496 51.1723V52.1372H177.446C176.914 51.8391 176.316 51.6796 175.707 51.6736C174.457 51.6736 173.456 52.5383 173.456 54.1299C173.456 55.7215 174.344 56.6363 175.732 56.6363C176.409 56.6363 177.067 56.4164 177.608 56.0097H177.658V56.9496C177.115 57.3456 176.453 57.5445 175.782 57.5136C175.332 57.5402 174.882 57.4721 174.46 57.3135C174.038 57.155 173.653 56.9096 173.332 56.5932C173.01 56.2768 172.758 55.8963 172.592 55.4764C172.426 55.0564 172.35 54.6063 172.368 54.1549V54.1549Z" fill="#595959"/>
<path d="M178.183 54.1548C178.183 52.112 179.471 50.7585 181.31 50.7585C182.886 50.7585 184.186 51.7486 183.986 54.2174H179.271C179.271 55.8216 180.197 56.6362 181.648 56.6362C182.399 56.6441 183.135 56.4258 183.761 56.0096H183.811V57.0121C183.142 57.3958 182.381 57.5907 181.61 57.5761C181.151 57.6149 180.69 57.5531 180.257 57.3951C179.825 57.237 179.432 56.9865 179.106 56.6609C178.78 56.3354 178.528 55.9425 178.369 55.5097C178.21 55.0769 178.146 54.6146 178.183 54.1548ZM179.321 53.3653H182.861C182.811 52.3251 182.235 51.6985 181.26 51.6985C180.786 51.6796 180.323 51.841 179.964 52.1502C179.604 52.4594 179.375 52.8935 179.321 53.3653V53.3653Z" fill="#595959"/>
</svg>
