<svg width="24" height="18" viewBox="0 0 24 18" fill="none" xmlns="http://www.w3.org/2000/svg">
<path d="M1.5 3H22.5C23.325 3 24 2.325 24 1.5C24 0.675 23.325 0 22.5 0H1.5C0.675 0 0 0.675 0 1.5C0 2.325 0.675 3 1.5 3Z" fill="black"/>
<path d="M22.5 7.5H1.5C0.675 7.5 0 8.175 0 9C0 9.825 0.675 10.5 1.5 10.5H22.5C23.325 10.5 24 9.825 24 9C24 8.175 23.325 7.5 22.5 7.5Z" fill="black"/>
<path d="M22.5 15H1.5C0.675 15 0 15.675 0 16.5C0 17.325 0.675 18 1.5 18H22.5C23.325 18 24 17.325 24 16.5C24 15.675 23.325 15 22.5 15Z" fill="black"/>
</svg>
