<svg width="16" height="16" viewBox="0 0 16 16" fill="none" xmlns="http://www.w3.org/2000/svg">
<path d="M6.99078 4.15005C6.99078 3.97133 7.04378 3.79662 7.14307 3.64802C7.24237 3.49942 7.3835 3.3836 7.54862 3.31521C7.71373 3.24682 7.89543 3.22892 8.07071 3.26379C8.246 3.29866 8.40701 3.38473 8.53339 3.5111C8.65976 3.63748 8.74582 3.79849 8.78069 3.97378C8.81555 4.14907 8.79766 4.33076 8.72926 4.49588C8.66086 4.661 8.54504 4.80212 8.39644 4.90141C8.24784 5.00071 8.07313 5.0537 7.8944 5.0537C7.65475 5.05369 7.42491 4.95849 7.25544 4.78902C7.08598 4.61955 6.99078 4.38971 6.99078 4.15005ZM9.30742 11.8581C9.05169 11.7762 8.73913 11.5357 8.73913 10.85V6.34831C8.73914 6.33232 8.73601 6.31648 8.7299 6.30171C8.7238 6.28693 8.71484 6.2735 8.70355 6.26219C8.69225 6.25087 8.67884 6.24189 8.66407 6.23576C8.64931 6.22963 8.63348 6.22647 8.61749 6.22645H6.82298C6.76292 6.22646 6.70345 6.23831 6.64796 6.2613C6.59247 6.2843 6.54206 6.318 6.4996 6.36048C6.45714 6.40296 6.42346 6.45339 6.40049 6.50889C6.37751 6.56439 6.3657 6.62387 6.36571 6.68393C6.36654 6.78224 6.39869 6.87772 6.45749 6.95651C6.5163 7.03529 6.59869 7.09328 6.69271 7.12203C6.9484 7.20397 7.26098 7.44444 7.26098 8.13011V10.85C7.26098 11.5357 6.9484 11.7762 6.69258 11.8581C6.59857 11.8869 6.51617 11.9448 6.45737 12.0236C6.39857 12.1024 6.36642 12.1979 6.36561 12.2962C6.3656 12.3563 6.37743 12.4157 6.40042 12.4712C6.4234 12.5267 6.45709 12.5772 6.49956 12.6196C6.54204 12.6621 6.59246 12.6958 6.64795 12.7188C6.70344 12.7418 6.76292 12.7536 6.82298 12.7536H9.17702C9.29833 12.7536 9.41466 12.7054 9.50044 12.6196C9.58621 12.5339 9.6344 12.4175 9.6344 12.2962C9.63358 12.1979 9.60143 12.1024 9.54263 12.0236C9.48383 11.9448 9.40144 11.8869 9.30742 11.8581ZM16 8C16 9.58225 15.5308 11.129 14.6518 12.4446C13.7727 13.7602 12.5233 14.7855 11.0615 15.391C9.59966 15.9965 7.99113 16.155 6.43928 15.8463C4.88743 15.5376 3.46197 14.7757 2.34315 13.6569C1.22433 12.538 0.462403 11.1126 0.153721 9.56072C-0.15496 8.00887 0.00346629 6.40034 0.608967 4.93853C1.21447 3.47672 2.23985 2.22729 3.55544 1.34824C4.87103 0.469192 6.41775 0 8 0C10.121 0.00238892 12.1544 0.846011 13.6542 2.34578C15.154 3.84556 15.9976 5.879 16 8ZM14.9333 8C14.9333 6.62871 14.5267 5.28823 13.7649 4.14805C13.003 3.00786 11.9202 2.1192 10.6533 1.59443C9.38637 1.06967 7.99231 0.932364 6.64738 1.19989C5.30244 1.46741 4.06704 2.12775 3.0974 3.09739C2.12775 4.06704 1.46742 5.30244 1.19989 6.64737C0.932368 7.99231 1.06967 9.38637 1.59444 10.6533C2.11921 11.9202 3.00787 13.003 4.14805 13.7649C5.28823 14.5267 6.62872 14.9333 8 14.9333C9.8382 14.9313 11.6005 14.2001 12.9003 12.9003C14.2001 11.6005 14.9313 9.8382 14.9333 8Z" fill="black"/>
</svg>
